<svg version="1.1" xmlns="http://www.w3.org/2000/svg" xmlns:xlink="http://www.w3.org/1999/xlink" width="50.82048" height="38.66666" viewBox="0,0,50.82048,38.66666"><g transform="translate(-214.20592,-160.66667)"><g data-paper-data="{&quot;isPaintingLayer&quot;:true}" fill-rule="nonzero" stroke-linejoin="miter" stroke-miterlimit="10" stroke-dasharray="" stroke-dashoffset="0" style="mix-blend-mode: normal"><path d="M252.3915,165.9183c0.23578,-0.04899 10.6093,3.13329 11.77123,8.72523c1.2289,5.91429 1.73186,11.19427 -2.59402,12.09313c-4.32588,0.89886 -8.82892,-3.16696 -10.05783,-9.08125c-1.2289,-5.91429 -3.44527,-10.83825 0.88062,-11.73711z" data-paper-data="{&quot;index&quot;:null}" fill="#ebd276" stroke="none" stroke-width="0" stroke-linecap="butt"/><path d="M259.5,180c0,10.67751 -8.73045,19.33333 -19.5,19.33333c-10.76955,0 -19.5,-8.65583 -19.5,-19.33333c0,-10.67751 8.73045,-19.33333 19.5,-19.33333c10.76955,0 19.5,8.65583 19.5,19.33333z" fill="#ffe794" stroke="none" stroke-width="0" stroke-linecap="butt"/><path d="M255.4313,186.30159c0,4.4643 -5.42732,9.25 -11.91667,9.25c-6.48935,0 -11.91667,-4.7857 -11.91667,-9.25c0,-2.41071 1.29786,-4.57494 3.82038,-6.05594c2.14884,-1.2616 5.27783,-2.0274 8.26295,-2.0274c3.29698,0 7.94347,0.60083 10.07738,2.1054c2.06619,1.45683 1.67262,3.78177 1.67262,5.97793z" fill="#ebd276" stroke="none" stroke-width="0" stroke-linecap="butt"/><path d="M251.76464,181.05159c0,1.10457 -1.1566,2 -2.58333,2c-1.42674,0 -2.58333,-0.89543 -2.58333,-2c0,-1.10457 1.1566,-2 2.58333,-2c1.42674,0 2.58333,0.89543 2.58333,2z" fill="#1b190f" stroke="none" stroke-width="0" stroke-linecap="butt"/><g fill="none" stroke="#1b190f" stroke-width="1.5" stroke-linecap="round"><path d="M249.20625,182.37013l0.02494,2.35689l-2.0576,1.5775"/><path d="M249.37459,184.91407l1.33432,1.35303"/></g><path d="M245.44848,172.41369c0,1.72589 -1.42709,3.125 -3.1875,3.125c-1.76041,0 -3.1875,-1.39911 -3.1875,-3.125c0,-1.72589 1.42709,-3.125 3.1875,-3.125c1.76041,0 3.1875,1.39911 3.1875,3.125z" fill="#1b190f" stroke="none" stroke-width="0" stroke-linecap="butt"/><path d="M255.19848,172.53869c0,1.72589 -1.42709,3.125 -3.1875,3.125c-1.76041,0 -3.1875,-1.39911 -3.1875,-3.125c0,-1.72589 1.42709,-3.125 3.1875,-3.125c1.76041,0 3.1875,1.39911 3.1875,3.125z" fill="#1b190f" stroke="none" stroke-width="0" stroke-linecap="butt"/><path d="M227.48816,177.97441c-0.82196,5.98443 -5.03671,10.34839 -9.41389,9.74718c-4.37718,-0.60121 -4.23613,-5.90322 -3.41417,-11.88765c0.77716,-5.65826 10.90904,-9.54183 11.14761,-9.50906c4.37718,0.60121 2.50241,5.66509 1.68045,11.64952z" fill="#ebd276" stroke="none" stroke-width="0" stroke-linecap="butt"/></g></g></svg>